# xmcd CD database file
#
# Track frame offsets:
#	150
#	18095
#	34092
#	51185
#	70065
#	99652
#	99992
#	113067
#	130755
#	146915
#	166322
#	193565
#
# Disc length: 2819 seconds
#
# Revision: 0
# Processed by: cddbd v1.4PL0 Copyright (c) Steve Scherf et al.
# Submitted via: CDex 1.50beta9
#
DISCID=9c0b010c
DTITLE=The Untouchabl(u)es - The Band
DYEAR=1995
DGENRE=Blues
TTITLE0=If you love me like you say
TTITLE1=You're a bad one
TTITLE2=Yack yack yack
TTITLE3=Turn it up (A little louder)
TTITLE4=Need your love so bad
TTITLE5=Har dåke da bra?
TTITLE6=I got you (I feel good)
TTITLE7=Shakey ground
TTITLE8=Rigorous blues
TTITLE9=I'm a sucker for love
TTITLE10=Got my mojo working
TTITLE11=Knock on wood
EXTD=YEAR: 1995
EXTT0=
EXTT1=
EXTT2=
EXTT3=
EXTT4=
EXTT5=
EXTT6=
EXTT7=
EXTT8=
EXTT9=
EXTT10=
EXTT11=
PLAYORDER=
